<svg xmlns="http://www.w3.org/2000/svg" viewBox="0 0 1920 1080">
  <defs>
    <style>
      .cls-so-2 {
        fill: #f48024;
      }
    </style>
  </defs>
  <g id="stickers">
    <path id="stackoverflow" class="cls-so-2" d="M565.86,737.48c-23.84-2.61-47.48,14.67-52.79,38.59s9.7,45.43,33.54,48,47.47-14.66,52.79-38.59S589.69,740.09,565.86,737.48ZM552.15,766.7,568,779.54l-3.17,3.66L549,770.37ZM545,776.63l19.29,7.78-2.15,4.27-19.29-7.78ZM541,786l20.72,4.27-1.42,4.49-20.72-4.27Zm-2.43,7.69L559.8,796l-1,4.55-21.25-2.33Zm26.1,13.81s-.24,1.07-.27,1.07h0l-34-3.72-1.06-.13h0l4.93-22.18,3.62.4-4.13,18.61,27.87,3.05L565.72,786l3.63.4ZM569,778.8,561,759.88l4.32-2.15,8.05,18.92Zm5.22-2.31,1-21.41,4.64-.29-1,21.41Z"/>
  </g>
</svg>
